<svg version="1.1" id="Layer_1" xmlns="http://www.w3.org/2000/svg" x="0" y="0" viewBox="0 0 1500 467" xml:space="preserve"><style>.st0{fill:#f7f1e4}</style><path class="st0" d="M75.2 146.6v62.5H16.5V21.6h140.6c67.5 0 87.4 26.7 87.4 61v2.5c0 33.5-20.4 61.5-87.4 61.5H75.2zm0-42.1h80.9c18.4 0 27.2-6.8 27.2-19.7V84c0-12.9-8.3-19.9-27.2-19.9H75.2v40.4zM326.4 209.1h-58.7V21.6h58.7v187.5zM476.8 212.4c-108.6 0-125.5-60.7-125.5-94v-7.3c0-34 14.6-92.7 125.5-92.7h10.3c108.6 0 125.5 51.9 125.5 73.8V95h-62.2c-1.5-5-9.1-31.2-68.5-31.2-56.2 0-69 25.2-69 48.6v3c0 22.2 14.9 51.4 69.5 51.4 60.7 0 66.8-29 68.3-33.3h62.2v2.8c0 23.7-18.6 76.1-125.7 76.1h-10.4zM637.1 209.1V21.6h58.7v78.1l96-78.1h74.6l-107.9 85.7 112.9 101.8h-76.6l-99-88.4v88.4h-58.7zM1090.9 211.9c-100.5 0-116.9-64-116.9-99.3v-91h59V109c0 24.2 10.8 54.2 62 54.2 50.4 0 61.5-30 61.5-54.2V21.6h58.7v91c0 35.3-19.2 99.3-115.2 99.3h-9.1zM1314.2 146.6v62.5h-58.7V21.6h140.6c67.5 0 87.4 26.7 87.4 61v2.5c0 33.5-20.4 61.5-87.4 61.5h-81.9zm0-42.1h80.9c18.4 0 27.2-6.8 27.2-19.7V84c0-12.9-8.3-19.9-27.2-19.9h-80.9v40.4zM75.5 382.5v62.9h-59V256.7H158c68 0 88 26.9 88 61.4v2.5c0 33.7-20.5 61.9-88 61.9H75.5zm0-42.4H157c18.5 0 27.4-6.8 27.4-19.8v-.8c0-12.9-8.4-20-27.4-20H75.5v40.6zM468.1 256.7v42.9H327.6v27.9h137.2v43.1H327.6v30.9h143v43.9H269.3V256.7h198.8zM634.8 253.4c118.7 0 132.6 59.6 132.6 93.3v7.6c0 33.2-13.7 94.3-132.6 94.3h-10.9c-119.4 0-132.9-61.1-132.9-94.3v-7.6c0-33.7 13.4-93.3 132.9-93.3h10.9zm70.7 95.1c0-21.6-12.4-49.5-76.3-49.5-64.9 0-76.3 27.9-76.3 49.5v3c0 21.6 12.4 51.2 76.3 51.2 63.4 0 76.3-28.9 76.3-50.7v-3.5zM851.6 382.5v62.9h-59.1V256.7H934c68 0 88 26.9 88 61.4v2.5c0 33.7-20.5 61.9-88 61.9h-82.4zm0-42.4H933c18.5 0 27.4-6.8 27.4-19.8v-.8c0-12.9-8.4-20-27.4-20h-81.4v40.6zM1104.5 256.7v141.8h131.1v46.9h-190.2V256.7h59.1zM1460 256.7v42.9h-140.5v27.9h137.2v43.1h-137.2v30.9h143v43.9h-201.4V256.7H1460z"/></svg>